<svg width="38" height="43" viewBox="0 0 38 43" fill="none" xmlns="http://www.w3.org/2000/svg">
<path d="M18.2972 0.566535C18.0799 0.322548 17.7274 0.322548 17.51 0.566535C17.2927 0.810523 17.2927 1.20603 17.51 1.45002L17.9714 1.96782H15.2864C14.979 1.96782 14.7297 2.24754 14.7297 2.59257C14.7297 2.9376 14.979 3.21733 15.2864 3.21733H18.0537L17.51 3.8275C17.2927 4.07149 17.2927 4.46709 17.51 4.71099C17.6187 4.83294 17.7612 4.894 17.9036 4.894C18.046 4.894 18.1885 4.83302 18.2972 4.71099L19.7499 3.08055C19.9673 2.83656 19.9673 2.44097 19.7499 2.19706L18.2972 0.566535Z" fill="#F78E36"/>
<path d="M29.6713 1.96879H26.9864L27.4477 1.451C27.6651 1.20701 27.6651 0.811416 27.4477 0.567512C27.2304 0.323525 26.8779 0.323525 26.6606 0.567512L25.2079 2.19804C24.9905 2.44203 24.9905 2.83762 25.2079 3.08152L26.6606 4.71197C26.7692 4.83392 26.9117 4.89498 27.0542 4.89498C27.1966 4.89498 27.3391 4.834 27.4477 4.71197C27.6651 4.46798 27.6651 4.07238 27.4477 3.82848L26.9041 3.2183H29.6713C29.9787 3.2183 30.228 2.93858 30.228 2.59355C30.228 2.24852 29.9787 1.96879 29.6713 1.96879V1.96879Z" fill="#F78E36"/>
<path d="M5.29195 4.11915L7.0041 2.19749C7.45201 1.69477 7.45201 0.879842 7.0041 0.377123C6.55626 -0.125596 5.83004 -0.125596 5.3822 0.377123L3.67005 2.29878L1.95783 0.377039C1.51 -0.12568 0.783767 -0.12568 0.335932 0.377039C-0.111977 0.879758 -0.111977 1.69469 0.335932 2.19741L2.04808 4.11907L0.335932 6.04081C-0.111977 6.54353 -0.111977 7.35846 0.335932 7.86118C0.783767 8.3639 1.51 8.3639 1.95783 7.86118L3.66998 5.93952L5.38213 7.86118C5.82996 8.3639 6.55619 8.3639 7.00403 7.86118C7.45193 7.35846 7.45193 6.54353 7.00403 6.04081L5.29195 4.11915Z" fill="#F75632"/>
<path d="M36.8533 42.6499H1.14714C0.513688 42.6499 0.000244141 42.0737 0.000244141 41.3627C0.000244141 40.6518 0.513688 40.0754 1.14714 40.0754H36.8533C37.4867 40.0754 38.0002 40.6517 38.0002 41.3627C38.0002 42.0737 37.4867 42.6499 36.8533 42.6499V42.6499Z" fill="#7BE492"/>
<path d="M36.8531 40.0754H34.5593C35.1927 40.0754 35.7062 40.6517 35.7062 41.3627C35.7062 42.0736 35.1927 42.6499 34.5593 42.6499H36.8531C37.4864 42.6499 38 42.0736 38 41.3627C38 40.6517 37.4864 40.0754 36.8531 40.0754Z" fill="#45D987"/>
<path d="M33.1066 16.9913H30.8128V12.7006H33.1066V16.9913Z" fill="#E8916F"/>
<path d="M29.1307 25.1901H33.7183V17.7636C33.7183 16.3418 32.6913 15.1892 31.4245 15.1892C30.1577 15.1892 29.1308 16.3418 29.1308 17.7636V25.1901H29.1307Z" fill="#E33629"/>
<path d="M33.7182 25.1899V25.4577C33.7182 26.2576 33.4679 27.032 33.011 27.646C32.5541 28.2598 32.3038 29.0343 32.3038 29.8343V39.7423C32.3038 39.9263 32.1709 40.0755 32.0069 40.0755H30.0101V31.6312C30.0101 30.3859 29.8919 29.1441 29.6576 27.9269L29.1308 25.1899H33.7182Z" fill="#4362A0"/>
<path d="M31.4245 14.0737C32.6913 14.0737 33.7182 12.9211 33.7182 11.4993V10.1263C33.7182 8.70443 32.6912 7.55188 31.4245 7.55188C30.1576 7.55188 29.1307 8.70451 29.1307 10.1263V11.4993C29.1307 12.9211 30.1577 14.0737 31.4245 14.0737Z" fill="#EBAD88"/>
<path d="M28.5483 40.0756H32.0069C32.1709 40.0756 32.3038 39.9264 32.3038 39.7424V37.3295H29.7807C28.9361 37.3295 28.2515 38.0979 28.2515 39.0458V39.7424C28.2515 39.9264 28.3844 40.0756 28.5483 40.0756V40.0756Z" fill="#BE652B"/>
<path d="M33.7182 28.0504V17.9716C33.7182 17.2784 33.2437 16.6821 32.6268 16.6494C31.9682 16.6146 31.4244 17.2036 31.4244 17.9352V28.0503C31.4244 28.7612 31.9379 29.3375 32.5713 29.3375C33.2047 29.3376 33.7182 28.7612 33.7182 28.0504V28.0504Z" fill="#EBAD88"/>
<path d="M33.7182 20.2088V17.9352C33.7182 17.2243 33.2047 16.6479 32.5713 16.6479C31.938 16.6479 31.4244 17.2243 31.4244 17.9352V20.2088H33.7182Z" fill="#4362A0"/>
<path d="M32.7457 10.9565C32.5972 10.6544 32.2584 10.5447 31.9894 10.7115L29.7421 12.104C29.473 12.2708 29.3753 12.6508 29.5238 12.9529C29.6254 13.1593 29.8155 13.2758 30.0117 13.2758C30.1027 13.2758 30.1949 13.2507 30.2802 13.1978L32.5275 11.8053C32.7966 11.6386 32.8943 11.2585 32.7457 10.9565Z" fill="#E4E4E4"/>
<path d="M24.505 16.9913H22.2113V12.7006H24.505V16.9913Z" fill="#E8916F"/>
<path d="M20.5292 25.1901H25.1167V17.7636C25.1167 16.3418 24.0897 15.1892 22.823 15.1892C21.5561 15.1892 20.5292 16.3418 20.5292 17.7636V25.1901H20.5292Z" fill="#FFD54F"/>
<path d="M25.1166 25.1899V25.4577C25.1166 26.2576 24.8663 27.032 24.4094 27.646C23.9525 28.2598 23.7022 29.0343 23.7022 29.8343V32.5238H21.4084V31.6312C21.4084 30.3859 21.2903 29.1441 21.056 27.9269L20.5292 25.1899H25.1166Z" fill="#4362A0"/>
<path d="M22.8229 14.0737C24.0897 14.0737 25.1166 12.9211 25.1166 11.4993V10.1263C25.1166 8.70443 24.0897 7.55188 22.8229 7.55188C21.5561 7.55188 20.5292 8.70451 20.5292 10.1263V11.4993C20.5292 12.9211 21.5561 14.0737 22.8229 14.0737Z" fill="#EBAD88"/>
<path d="M19.9468 40.0756H23.4054C23.5693 40.0756 23.7022 39.9264 23.7022 39.7424V37.3295H21.179C20.3345 37.3295 19.6498 38.0979 19.6498 39.0458V39.7424C19.6499 39.9264 19.7828 40.0756 19.9468 40.0756Z" fill="#BE652B"/>
<path d="M25.1167 28.0504V17.9716C25.1167 17.2784 24.6421 16.6821 24.0252 16.6494C23.3666 16.6146 22.8229 17.2036 22.8229 17.9352V28.0503C22.8229 28.7612 23.3363 29.3375 23.9698 29.3375C24.6032 29.3376 25.1167 28.7612 25.1167 28.0504V28.0504Z" fill="#EBAD88"/>
<path d="M25.1166 20.2088V17.9352C25.1166 17.2243 24.6032 16.6479 23.9697 16.6479C23.3363 16.6479 22.8228 17.2243 22.8228 17.9352V20.2088H25.1166Z" fill="#4362A0"/>
<path d="M24.3763 11.0957C24.2584 10.7771 23.9326 10.6259 23.6487 10.7582L20.9907 11.9969C20.7068 12.1292 20.5722 12.4949 20.6901 12.8135C20.779 13.0538 20.9861 13.1989 21.2044 13.1989C21.2755 13.1989 21.3479 13.1834 21.4177 13.151L24.0756 11.9123C24.3596 11.78 24.4942 11.4143 24.3763 11.0957V11.0957Z" fill="#E4E4E4"/>
<path d="M15.4064 16.9913H13.1127V12.7006H15.4064V16.9913Z" fill="#E8916F"/>
<path d="M11.4305 25.1901H16.0181V17.7636C16.0181 16.3418 14.9911 15.1892 13.7243 15.1892C12.4575 15.1892 11.4306 16.3418 11.4306 17.7636V25.1901H11.4305Z" fill="#E33629"/>
<path d="M16.0181 25.1899V25.4577C16.0181 26.2576 15.7678 27.032 15.3109 27.646C14.8539 28.2598 14.6037 29.0343 14.6037 29.8343V39.7423C14.6037 39.9263 14.4707 40.0755 14.3068 40.0755H12.3099V31.6312C12.3099 30.3859 12.1918 29.1441 11.9575 27.9269L11.4307 25.1899H16.0181Z" fill="#4362A0"/>
<path d="M13.7243 14.0737C14.9911 14.0737 16.018 12.9211 16.018 11.4993V10.1263C16.018 8.70443 14.991 7.55188 13.7243 7.55188C12.4574 7.55188 11.4305 8.70451 11.4305 10.1263V11.4993C11.4305 12.9211 12.4575 14.0737 13.7243 14.0737Z" fill="#EBAD88"/>
<path d="M10.8481 40.0756H14.3067C14.4707 40.0756 14.6036 39.9264 14.6036 39.7424V37.3295H12.0805C11.2359 37.3295 10.5513 38.0979 10.5513 39.0458V39.7424C10.5513 39.9264 10.6842 40.0756 10.8481 40.0756V40.0756Z" fill="#BE652B"/>
<path d="M16.0181 28.0504V17.9716C16.0181 17.2784 15.5435 16.6821 14.9266 16.6494C14.268 16.6146 13.7243 17.2036 13.7243 17.9352V28.0503C13.7243 28.7612 14.2377 29.3375 14.8712 29.3375C15.5047 29.3376 16.0181 28.7612 16.0181 28.0504V28.0504Z" fill="#EBAD88"/>
<path d="M16.0181 20.2088V17.9352C16.0181 17.2243 15.5046 16.6479 14.8712 16.6479C14.2378 16.6479 13.7243 17.2243 13.7243 17.9352V20.2088H16.0181Z" fill="#4362A0"/>
<path d="M15.2799 11.0961C15.1623 10.7773 14.8366 10.6262 14.5526 10.7582L11.8905 11.9969C11.6065 12.129 11.4717 12.4945 11.5895 12.8132C11.6783 13.0538 11.8855 13.1989 12.1039 13.1989C12.1749 13.1989 12.2471 13.1835 12.3168 13.1511L14.9789 11.9124C15.2629 11.7803 15.3976 11.4148 15.2799 11.0961V11.0961Z" fill="#E4E4E4"/>
<path d="M21.4084 32.5239H23.7022V37.3295H21.4084V32.5239Z" fill="#EBAD88"/>
<path d="M29.6992 14.3838H30.0932C30.293 14.3838 30.455 14.2021 30.455 13.9778V12.1856C30.455 12.0252 30.3391 11.8951 30.1962 11.8951H28.6435C28.546 11.8951 28.467 11.9838 28.467 12.0931V13.0008C28.4671 13.7647 29.0187 14.3838 29.6992 14.3838V14.3838Z" fill="#7BE492"/>
<path d="M21.0977 14.3838H21.4917C21.6915 14.3838 21.8535 14.2021 21.8535 13.9778V12.1856C21.8535 12.0252 21.7376 11.8951 21.5947 11.8951H20.042C19.9446 11.8951 19.8656 11.9838 19.8656 12.0931V13.0008C19.8655 13.7647 20.4172 14.3838 21.0977 14.3838V14.3838Z" fill="#7BE492"/>
<path d="M11.9991 14.3838H12.3931C12.5929 14.3838 12.7549 14.2021 12.7549 13.9778V12.1856C12.7549 12.0252 12.639 11.8951 12.4961 11.8951H10.9433C10.8459 11.8951 10.7669 11.9838 10.7669 12.0931V13.0008C10.767 13.7647 11.3186 14.3838 11.9991 14.3838V14.3838Z" fill="#7BE492"/>
<path d="M33.9094 8.68919V11.6751C33.9094 12.194 33.5346 12.6146 33.0723 12.6146C32.3523 12.6146 31.7685 11.9595 31.7685 11.1514V11.0876C31.7685 10.6039 31.4192 10.2118 30.9883 10.2118H29.6277C28.8676 10.2118 28.2515 9.52028 28.2515 8.6672C28.2515 7.81412 28.8676 7.12256 29.6277 7.12256H32.5135C33.2844 7.12256 33.9094 7.82395 33.9094 8.68919V8.68919Z" fill="#D67B42"/>
<path d="M32.5135 7.12256H30.2198C30.9907 7.12256 31.6156 7.82395 31.6156 8.68919V10.5685C31.7113 10.7138 31.7685 10.893 31.7685 11.0876V11.1514C31.7685 11.9595 32.3522 12.6146 33.0722 12.6146C33.5345 12.6146 33.9093 12.194 33.9093 11.6751V8.68919C33.9093 7.82395 33.2844 7.12256 32.5135 7.12256V7.12256Z" fill="#BE652B"/>
<path d="M25.3078 8.68919V11.6751C25.3078 12.194 24.933 12.6146 24.4707 12.6146C23.7507 12.6146 23.167 11.9595 23.167 11.1514V11.0876C23.167 10.6039 22.8176 10.2118 22.3867 10.2118H21.0261C20.2661 10.2118 19.6499 9.52028 19.6499 8.6672C19.6499 7.81412 20.2661 7.12256 21.0261 7.12256H23.912C24.6829 7.12256 25.3078 7.82395 25.3078 8.68919V8.68919Z" fill="#FFC328"/>
<path d="M23.912 7.12256H21.6183C22.3892 7.12256 23.0141 7.82395 23.0141 8.68919V10.5685C23.1098 10.7138 23.167 10.893 23.167 11.0876V11.1514C23.167 11.9595 23.7507 12.6146 24.4707 12.6146C24.933 12.6146 25.3078 12.194 25.3078 11.6751V8.68919C25.3078 7.82395 24.6829 7.12256 23.912 7.12256V7.12256Z" fill="#FFB200"/>
<path d="M16.2092 8.68919V11.6751C16.2092 12.194 15.8344 12.6146 15.3721 12.6146C14.6521 12.6146 14.0683 11.9595 14.0683 11.1514V11.0876C14.0683 10.6039 13.719 10.2118 13.2881 10.2118H11.9275C11.1674 10.2118 10.5513 9.52028 10.5513 8.6672C10.5513 7.81412 11.1674 7.12256 11.9275 7.12256H14.8133C15.5843 7.12256 16.2092 7.82395 16.2092 8.68919V8.68919Z" fill="#D67B42"/>
<path d="M14.8134 7.12256H12.5197C13.2906 7.12256 13.9155 7.82395 13.9155 8.68919V10.5685C14.0111 10.7138 14.0684 10.893 14.0684 11.0876V11.1514C14.0684 11.9595 14.652 12.6146 15.3721 12.6146C15.8344 12.6146 16.2092 12.194 16.2092 11.6751V8.68919C16.2092 7.82395 15.5843 7.12256 14.8134 7.12256V7.12256Z" fill="#BE652B"/>
</svg>
