<svg width="256" height="200" viewBox="0 0 256 200" fill="none" xmlns="http://www.w3.org/2000/svg">
<path d="M12.6411 163.321C15.0682 168.1 18.025 172.431 21.4244 176.185C21.502 176.273 21.5818 176.357 21.6616 176.444L28.9195 171.085C28.8658 170.995 28.8065 170.893 28.743 170.782C24.9534 164.226 7.83868 120.615 7.7341 110.957C7.72091 111.756 1.57478 141.772 12.6411 163.321Z" fill="#CC929B"/>
<path d="M20.0239 177.219C20.136 177.281 20.2504 177.342 20.3657 177.4L25.8108 173.38C25.7258 173.319 25.6266 173.247 25.5129 173.166C23.6489 171.813 18.1025 167.748 12.6416 163.321C6.77397 158.562 1.00166 153.388 0 150.713C0.208443 151.329 6.66898 170.039 20.0239 177.219Z" fill="#CC929B"/>
<path d="M255.982 182.993C255.86 188.642 255.099 194.242 253.72 199.627C253.689 199.752 253.655 199.875 253.622 200H245.18C245.189 199.888 245.198 199.763 245.207 199.627C245.77 191.586 242.554 143.231 238.673 134.862C239.013 135.541 256.637 157.444 255.982 182.993Z" fill="#CC929B"/>
<path d="M125.569 197.617H27.9371C25.623 197.614 23.4045 196.47 21.7682 194.437C20.1319 192.404 19.2115 189.648 19.2089 186.772V10.8451C19.2115 7.96976 20.1319 5.21317 21.7682 3.18003C23.4045 1.14689 25.623 0.00324571 27.9371 0H125.569C127.883 0.0032457 130.102 1.14689 131.738 3.18002C133.374 5.21316 134.295 7.96975 134.297 10.845V186.772C134.295 189.648 133.374 192.404 131.738 194.437C130.102 196.47 127.883 197.614 125.569 197.617V197.617Z" fill="#CACACA"/>
<path d="M125.741 190.698H27.7653C27.0519 190.697 26.3681 190.344 25.8637 189.718C25.3593 189.091 25.0755 188.241 25.0747 187.355V10.2625C25.0755 9.37614 25.3593 8.5264 25.8637 7.89966C26.3681 7.27293 27.0519 6.92039 27.7653 6.91937H125.741C126.454 6.92038 127.138 7.27293 127.643 7.89966C128.147 8.5264 128.431 9.37614 128.432 10.2625V187.355C128.431 188.241 128.147 189.091 127.643 189.718C127.138 190.344 126.454 190.697 125.741 190.698V190.698Z" fill="white"/>
<path d="M76.3819 4.24391C76.792 4.24391 77.1244 3.83086 77.1244 3.32133C77.1244 2.8118 76.792 2.39874 76.3819 2.39874C75.9718 2.39874 75.6394 2.8118 75.6394 3.32133C75.6394 3.83086 75.9718 4.24391 76.3819 4.24391Z" fill="white"/>
<path d="M76.7524 146.77C81.987 146.77 86.2304 141.497 86.2304 134.993C86.2304 128.489 81.987 123.217 76.7524 123.217C71.5179 123.217 67.2744 128.489 67.2744 134.993C67.2744 141.497 71.5179 146.77 76.7524 146.77Z" fill="#493657"/>
<path d="M82.6862 112.39H70.8185L63.6537 68.8426C63.4697 66.5687 63.6711 64.2721 64.2451 62.1008C64.8191 59.9295 65.7529 57.9318 66.9863 56.2364C68.2197 54.5409 69.7253 53.1855 71.4061 52.2573C73.0869 51.3292 74.9056 50.8489 76.7449 50.8476C78.5843 50.8462 80.4034 51.3238 82.0851 52.2495C83.7668 53.1751 85.2737 54.5284 86.5087 56.222C87.7438 57.9156 88.6795 59.912 89.2555 62.0824C89.8316 64.2528 90.0352 66.5492 89.8533 68.8234L82.6862 112.39Z" fill="#493657"/>
<path d="M123.383 53.8559H166.76C168.853 53.8559 170.884 54.7408 172.519 56.3651C174.154 57.9893 175.295 60.2564 175.755 62.7935L197.673 183.587C197.912 184.905 197.916 186.271 197.685 187.591C197.454 188.911 196.994 190.152 196.336 191.227C195.678 192.302 194.839 193.186 193.878 193.815C192.916 194.445 191.855 194.806 190.769 194.872L146.178 197.602C143.79 197.748 141.441 196.81 139.569 194.963C137.697 193.115 136.43 190.484 136.005 187.561L123.572 102.159L121.22 86.0045L117.75 62.1656C117.601 61.1445 117.635 60.0953 117.851 59.0927C118.066 58.0901 118.456 57.1588 118.994 56.3652C119.532 55.5716 120.205 54.9353 120.963 54.5015C121.722 54.0678 122.548 53.8474 123.383 53.8559V53.8559Z" fill="#3F3D56"/>
<path d="M161.05 56.46H166.113C167.567 56.46 168.977 57.0779 170.11 58.2111C171.242 59.3444 172.029 60.9248 172.339 62.6901L193.377 182.498C193.498 183.188 193.498 183.902 193.376 184.592C193.255 185.281 193.015 185.931 192.674 186.495C192.332 187.059 191.896 187.524 191.396 187.86C190.896 188.196 190.344 188.393 189.777 188.44L145.33 192.059C144.076 192.161 142.835 191.686 141.845 190.724C140.855 189.763 140.185 188.382 139.962 186.845L122.011 63.0119C121.894 62.2104 121.921 61.3869 122.089 60.5997C122.257 59.8125 122.562 59.0806 122.982 58.4558C123.403 57.831 123.928 57.3284 124.522 56.9835C125.116 56.6387 125.763 56.46 126.419 56.46H131.222C131.687 56.46 132.139 56.6504 132.508 57.0018C132.877 57.3531 133.143 57.8459 133.263 58.4036V58.4036C133.37 58.8961 133.604 59.3311 133.93 59.6413C134.256 59.9515 134.655 60.1196 135.065 60.1196H157.869C158.673 60.1196 159.447 59.7427 160.036 59.0642C160.626 58.3857 160.988 57.4556 161.05 56.4599V56.46Z" fill="white"/>
<path d="M183.483 94.8644C183.625 94.9785 183.759 95.1065 183.885 95.247L198.578 90.593L199.58 86.1888L205.127 87.1997L203.963 95.2108C203.869 95.8579 203.608 96.4498 203.22 96.8973C202.833 97.3449 202.338 97.6241 201.812 97.6929L184.656 99.9378C184.377 100.669 183.925 101.278 183.36 101.682C182.795 102.086 182.145 102.267 181.495 102.201C180.846 102.135 180.228 101.825 179.724 101.312C179.219 100.799 178.853 100.107 178.673 99.3287C178.493 98.5504 178.508 97.7224 178.716 96.9549C178.924 96.1874 179.315 95.5168 179.837 95.0321C180.359 94.5475 180.987 94.2719 181.639 94.2419C182.29 94.2119 182.933 94.429 183.483 94.8644H183.483Z" fill="#FFB6B6"/>
<path d="M172.997 111.382C178.232 111.382 182.475 106.11 182.475 99.6058C182.475 93.1017 178.232 87.8291 172.997 87.8291C167.763 87.8291 163.519 93.1017 163.519 99.6058C163.519 106.11 167.763 111.382 172.997 111.382Z" fill="#493657"/>
<path d="M178.931 77.0022H167.064L159.899 33.455C159.715 31.1811 159.916 28.8845 160.49 26.7132C161.064 24.5419 161.998 22.5442 163.231 20.8488C164.465 19.1533 165.97 17.7979 167.651 16.8697C169.332 15.9415 171.151 15.4613 172.99 15.46C174.829 15.4586 176.649 15.9362 178.33 16.8618C180.012 17.7875 181.519 19.1408 182.754 20.8344C183.989 22.528 184.925 24.5243 185.501 26.6948C186.077 28.8652 186.28 31.1615 186.098 33.4357L178.931 77.0022Z" fill="#493657"/>
<path d="M206.119 91.1973L202.334 95.2546L197.038 100.926L194.7 86.0574L194.455 84.5112L194.262 83.2842L199.628 71.6709L204.101 71.99L204.407 72.0128L204.413 72.0964L204.483 72.8751L205.401 83.1246L205.422 83.3716L206.119 91.1973Z" fill="#3F3D56"/>
<path d="M181.379 192.885L177.631 192.885L175.847 174.92L181.38 174.921L181.379 192.885Z" fill="#FFB6B6"/>
<path d="M182.335 197.4L170.249 197.399V197.209C170.249 195.659 170.744 194.172 171.627 193.076C172.509 191.98 173.705 191.364 174.953 191.364H174.953L182.335 191.364L182.335 197.4Z" fill="#2F2E41"/>
<path d="M220.514 193.265L216.766 193.265L214.982 175.3L220.515 175.301L220.514 193.265Z" fill="#FFB6B6"/>
<path d="M221.47 197.779L209.384 197.779V197.589C209.384 196.039 209.879 194.552 210.762 193.456C211.644 192.36 212.84 191.744 214.088 191.744H214.088L221.47 191.744L221.47 197.779Z" fill="#2F2E41"/>
<path d="M223.51 185.354L213.42 187.253L198.742 125.528L183.152 187.633L171.839 185.734L186.515 113.554V107.856L188.502 99.3082L188.294 96.9946L186.848 80.815L186.221 73.7984L186.181 73.3452C186.147 72.9648 186.228 72.5822 186.408 72.2721C186.589 71.9619 186.856 71.7463 187.157 71.6672V71.6672L191.865 70.4364H199.561L204.101 71.9901L204.413 72.0965L204.554 72.1459L204.483 72.8753L203.419 83.9605L203.361 84.5684L202.334 95.2547L202.108 97.5987C210.974 105.576 211.28 113.554 211.28 113.554L223.51 185.354Z" fill="#2F2E41"/>
<path d="M194.783 65.6301C198.93 65.6301 202.293 61.4527 202.293 56.2996C202.293 51.1465 198.93 46.969 194.783 46.969C190.636 46.969 187.274 51.1465 187.274 56.2996C187.274 61.4527 190.636 65.6301 194.783 65.6301Z" fill="#FFB6B6"/>
<path d="M202.671 95.4546L187.816 97.8684L188.093 100.505L202.948 98.0914L202.671 95.4546Z" fill="#3F3D56"/>
<path d="M167.89 98.6632C168.032 98.7774 168.166 98.9054 168.292 99.0459L182.985 94.3919L183.987 89.9877L189.535 90.9985L188.37 99.0096C188.276 99.6568 188.015 100.249 187.628 100.696C187.24 101.144 186.745 101.423 186.219 101.492L169.064 103.737C168.784 104.468 168.332 105.077 167.767 105.481C167.202 105.885 166.552 106.066 165.902 106C165.253 105.934 164.635 105.624 164.131 105.111C163.627 104.598 163.26 103.906 163.08 103.128C162.9 102.349 162.915 101.521 163.123 100.754C163.331 99.9863 163.722 99.3157 164.244 98.831C164.766 98.3464 165.394 98.0708 166.046 98.0408C166.697 98.0108 167.34 98.2279 167.89 98.6632H167.89Z" fill="#FFB6B6"/>
<path d="M190.49 74.0453L187.891 71.576C187.188 71.2449 186.225 72.1858 186.056 73.0956L182.387 91.7103L190.031 98.5484L191.101 96.459L190.49 74.0453Z" fill="#3F3D56"/>
<g opacity="0.2">
<path opacity="0.2" d="M205.4 83.1247C204.752 83.4447 204.091 83.7236 203.419 83.9605C203.205 84.0403 202.985 84.1163 202.768 84.1885C201.337 84.6817 199.867 84.9773 198.384 85.0698C197.745 85.1033 197.106 85.0818 196.47 85.0052C195.787 84.9207 195.112 84.7553 194.455 84.5114C194.433 84.5038 194.409 84.4962 194.388 84.4886C193.021 84.0062 191.767 83.1214 190.734 81.9091C190.503 81.6298 190.288 81.3315 190.089 81.0164C189.518 80.1475 189.099 79.1404 188.859 78.0591C188.619 76.9779 188.563 75.8464 188.695 74.7367C188.72 74.5356 188.755 74.3365 188.799 74.1403C188.914 73.6057 189.066 73.0845 189.254 72.5827C189.337 72.3472 189.429 72.1155 189.526 71.8876L192.981 70.4364H199.561L204.101 71.9901L204.407 72.0129L204.413 72.0965L204.554 72.1459L204.483 72.8753L205.4 83.1247Z" fill="black"/>
</g>
<path d="M189.029 48.5749C187.625 48.361 186.083 48.5122 184.989 49.6262C183.894 50.7401 183.541 53.0558 184.577 54.2526C185.495 55.3122 186.93 55.063 188.158 55.3643C189.217 55.6591 190.166 56.3867 190.852 57.4306C191.538 58.4745 191.923 59.7744 191.945 61.1222C191.926 64.9872 188.941 67.9142 188.405 71.7215C188.039 74.3199 188.921 77.0545 190.446 78.89C191.97 80.7254 194.067 81.7173 196.179 81.986C198.29 82.2547 200.426 81.8443 202.479 81.1701C204.54 80.4931 206.569 79.5326 208.298 77.9836C210.028 76.4346 211.445 74.2509 212 71.6934C212.556 69.1359 212.157 66.2036 210.726 64.24C209.088 61.9914 206.362 61.2181 204.945 58.7484C203.356 55.9798 203.944 52.0371 202.658 49.0356C201.799 47.0316 200.174 45.6647 198.441 44.9447C196.708 44.2246 194.858 44.0825 193.032 44.0128C192.072 43.9761 191.083 43.9639 190.188 44.3987C189.294 44.8336 188.508 45.8245 188.462 47.0164C188.415 48.2083 189.029 48.5749 189.029 48.5749Z" fill="#2F2E41"/>
</svg>
